<?xml version="1.0" encoding="utf-8"?>
<!-- Generator: Adobe Illustrator 20.0.0, SVG Export Plug-In . SVG Version: 6.00 Build 0)  -->
<svg version="1.1" id="Layer_1" xmlns="http://www.w3.org/2000/svg" xmlns:xlink="http://www.w3.org/1999/xlink" x="0px" y="0px"
	 viewBox="0 0 321 642" style="enable-background:new 0 0 321 642;" xml:space="preserve">
<style type="text/css">
	.st0{fill:#DDDDDD;stroke:#222222;stroke-linecap:round;stroke-linejoin:round;stroke-miterlimit:10;}
	.st1{fill:#F4F4F4;stroke:#222222;stroke-miterlimit:10;}
</style>
<path class="st0" d="M290.8,199.1v-61c0-71.4-58.1-129.4-129.4-129.4S32,66.8,32,138.1v61c0,56.1,35.9,104,86,121.9
	c-50.1,17.9-86,65.8-86,121.9v61c0,71.4,58.1,129.4,129.4,129.4c71.4,0,129.4-58.1,129.4-129.4v-61c0-56.1-35.9-104-86-121.9
	C254.9,303.1,290.8,255.2,290.8,199.1z M275.8,442.9v61c0,63.1-51.3,114.4-114.4,114.4h0C98.3,618.3,47,567,47,503.9v-61
	c0-63.1,51.3-114.4,114.4-114.4C224.5,328.5,275.8,379.8,275.8,442.9z M161.4,313.5L161.4,313.5C98.3,313.5,47,262.2,47,199.1v-61
	C47,75,98.3,23.7,161.4,23.7c63.1,0,114.4,51.3,114.4,114.4v61C275.8,262.2,224.5,313.5,161.4,313.5z"/>
<circle class="st1" cx="290.8" cy="199.1" r="3.6"/>
<circle class="st1" cx="275.8" cy="199.1" r="3.6"/>
<circle class="st1" cx="290.8" cy="137.4" r="3.6"/>
<circle class="st1" cx="275.8" cy="137.4" r="3.6"/>
<circle class="st1" cx="47" cy="199.1" r="3.6"/>
<circle class="st1" cx="118.6" cy="321" r="3.6"/>
<circle class="st1" cx="205.3" cy="321" r="3.6"/>
<circle class="st1" cx="32" cy="199.1" r="3.6"/>
<circle class="st1" cx="47" cy="137.4" r="3.6"/>
<circle class="st1" cx="161.4" cy="8.7" r="3.6"/>
<circle class="st1" cx="161.1" cy="23.3" r="3.6"/>
<circle class="st1" cx="161.4" cy="313.7" r="3.6"/>
<circle class="st1" cx="161.1" cy="328.3" r="3.6"/>
<circle class="st1" cx="32" cy="137.4" r="3.6"/>
<circle class="st1" cx="290.8" cy="503.8" r="3.6"/>
<circle class="st1" cx="275.8" cy="503.8" r="3.6"/>
<circle class="st1" cx="290.8" cy="442.1" r="3.6"/>
<circle class="st1" cx="275.8" cy="442.1" r="3.6"/>
<circle class="st1" cx="47" cy="503.8" r="3.6"/>
<circle class="st1" cx="32" cy="503.8" r="3.6"/>
<circle class="st1" cx="47" cy="442.1" r="3.6"/>
<circle class="st1" cx="161.4" cy="618.4" r="3.6"/>
<circle class="st1" cx="161.1" cy="633" r="3.6"/>
<circle class="st1" cx="32" cy="442.1" r="3.6"/>
</svg>
