<?xml version="1.0" encoding="utf-8"?>
<!-- Generator: Adobe Illustrator 20.0.0, SVG Export Plug-In . SVG Version: 6.00 Build 0)  -->
<svg version="1.1" id="Layer_1" xmlns="http://www.w3.org/2000/svg" xmlns:xlink="http://www.w3.org/1999/xlink" x="0px" y="0px"
	 viewBox="0 0 321 642" style="enable-background:new 0 0 321 642;" xml:space="preserve">
<style type="text/css">
	.st0{fill:none;stroke:#DDDDDD;stroke-width:15;stroke-linecap:round;stroke-linejoin:round;stroke-miterlimit:10;}
	.st1{fill:none;stroke:#0000FF;stroke-linecap:round;stroke-linejoin:round;stroke-miterlimit:10;}
	.st2{fill:#F4F4F4;stroke:#0000FF;stroke-miterlimit:10;}
	.st3{fill:none;}
</style>
<path class="st0" d="M281.5,199.1v304.8c0,67.3-54.6,121.9-121.9,121.9l0,0c-67.3,0-121.9-54.6-121.9-121.9"/>
<path class="st0" d="M159.6,16.2L159.6,16.2c67.3,0,121.9,54.6,121.9,121.9v61c0,67.3-54.6,121.9-121.9,121.9l0,0
	c-67.3,0-121.9-54.6-121.9-121.9v-61C37.7,70.8,92.2,16.2,159.6,16.2z"/>
<path class="st1" d="M281.5,199.1v304.8c0,67.3-54.6,121.9-121.9,121.9l0,0c-67.3,0-121.9-54.6-121.9-121.9"/>
<path class="st1" d="M159.6,16.2L159.6,16.2c67.3,0,121.9,54.6,121.9,121.9v61c0,67.3-54.6,121.9-121.9,121.9l0,0
	c-67.3,0-121.9-54.6-121.9-121.9v-61C37.7,70.8,92.2,16.2,159.6,16.2z"/>
<circle class="st2" cx="159.6" cy="321" r="3.6"/>
<circle class="st2" cx="159.6" cy="625.8" r="3.6"/>
<circle class="st2" cx="281.5" cy="199.1" r="3.6"/>
<circle class="st2" cx="281.5" cy="503.4" r="3.6"/>
<circle class="st2" cx="37.7" cy="503.4" r="3.6"/>
<circle class="st2" cx="281.5" cy="137.4" r="3.6"/>
<circle class="st2" cx="159.9" cy="15.9" r="3.6"/>
<circle class="st2" cx="37.7" cy="199.1" r="3.6"/>
<circle class="st2" cx="37.7" cy="137.4" r="3.6"/>
<rect x="311.2" y="676" class="st3" width="243.2" height="116"/>
</svg>
